<mxfile modified="2023-01-06T12:37:35.663Z" host="app.diagrams.net" agent="5.0 (Windows NT 10.0; Win64; x64) AppleWebKit/537.36 (KHTML, like Gecko) Chrome/108.0.0.0 Safari/537.36" etag="gv8STNYwqAutAbe53g5l" version="20.8.2" type="github">
  <diagram id="Ht1M8jgEwFfnCIfOTk4-" name="Page-1">
    <mxGraphModel dx="1434" dy="756" grid="1" gridSize="10" guides="1" tooltips="1" connect="1" arrows="1" fold="1" page="1" pageScale="1" pageWidth="1169" pageHeight="827" math="0" shadow="0">
      <root>
        <mxCell id="0" />
        <mxCell id="1" parent="0" />
        <mxCell id="50dgmGFw_itX3a2I8BG3-1" value="VPC" style="points=[[0,0],[0.25,0],[0.5,0],[0.75,0],[1,0],[1,0.25],[1,0.5],[1,0.75],[1,1],[0.75,1],[0.5,1],[0.25,1],[0,1],[0,0.75],[0,0.5],[0,0.25]];outlineConnect=0;gradientColor=none;html=1;whiteSpace=wrap;fontSize=12;fontStyle=0;container=1;pointerEvents=0;collapsible=0;recursiveResize=0;shape=mxgraph.aws4.group;grIcon=mxgraph.aws4.group_vpc;strokeColor=#248814;fillColor=none;verticalAlign=top;align=left;spacingLeft=30;fontColor=#AAB7B8;dashed=0;" vertex="1" parent="1">
          <mxGeometry x="150" y="40" width="970" height="640" as="geometry" />
        </mxCell>
        <mxCell id="50dgmGFw_itX3a2I8BG3-10" value="" style="outlineConnect=0;dashed=0;verticalLabelPosition=bottom;verticalAlign=top;align=center;html=1;shape=mxgraph.aws3.internet_gateway;fillColor=#F58536;gradientColor=none;fontColor=#0000CC;" vertex="1" parent="50dgmGFw_itX3a2I8BG3-1">
          <mxGeometry x="445.5" y="8" width="69" height="72" as="geometry" />
        </mxCell>
        <mxCell id="50dgmGFw_itX3a2I8BG3-2" value="" style="verticalLabelPosition=bottom;html=1;verticalAlign=top;align=center;strokeColor=none;fillColor=#00BEF2;shape=mxgraph.azure.user;" vertex="1" parent="1">
          <mxGeometry x="30" y="320" width="47.5" height="50" as="geometry" />
        </mxCell>
        <mxCell id="50dgmGFw_itX3a2I8BG3-3" value="" style="shape=singleArrow;whiteSpace=wrap;html=1;" vertex="1" parent="1">
          <mxGeometry x="90" y="340" width="70" height="30" as="geometry" />
        </mxCell>
        <mxCell id="50dgmGFw_itX3a2I8BG3-4" value="Availability Zone" style="fillColor=none;strokeColor=#147EBA;verticalAlign=top;fontStyle=0;fontColor=#147EBA;" vertex="1" parent="1">
          <mxGeometry x="230" y="120" width="800" height="500" as="geometry" />
        </mxCell>
        <mxCell id="50dgmGFw_itX3a2I8BG3-5" value="Public subnet" style="points=[[0,0],[0.25,0],[0.5,0],[0.75,0],[1,0],[1,0.25],[1,0.5],[1,0.75],[1,1],[0.75,1],[0.5,1],[0.25,1],[0,1],[0,0.75],[0,0.5],[0,0.25]];outlineConnect=0;gradientColor=none;html=1;whiteSpace=wrap;fontSize=12;fontStyle=0;container=1;pointerEvents=0;collapsible=0;recursiveResize=0;shape=mxgraph.aws4.group;grIcon=mxgraph.aws4.group_security_group;grStroke=0;strokeColor=#248814;fillColor=#E9F3E6;verticalAlign=top;align=left;spacingLeft=30;fontColor=#248814;dashed=0;" vertex="1" parent="1">
          <mxGeometry x="290" y="170" width="280" height="410" as="geometry" />
        </mxCell>
        <mxCell id="50dgmGFw_itX3a2I8BG3-7" value="&lt;font color=&quot;#0000cc&quot;&gt;Security Group&lt;/font&gt;&lt;br&gt;&lt;br&gt;&lt;font color=&quot;#452200&quot; style=&quot;font-size: 15px;&quot;&gt;&lt;b&gt;Web Application&lt;/b&gt;&lt;/font&gt;" style="fontStyle=0;verticalAlign=top;align=center;spacingTop=-2;fillColor=none;rounded=0;whiteSpace=wrap;html=1;strokeColor=#FF0000;strokeWidth=2;dashed=1;container=1;collapsible=0;expand=0;recursiveResize=0;" vertex="1" parent="50dgmGFw_itX3a2I8BG3-5">
          <mxGeometry x="20" y="50" width="240" height="340" as="geometry" />
        </mxCell>
        <mxCell id="50dgmGFw_itX3a2I8BG3-11" value="" style="outlineConnect=0;dashed=0;verticalLabelPosition=bottom;verticalAlign=top;align=center;html=1;shape=mxgraph.aws3.route_table;fillColor=#F58536;gradientColor=none;fontColor=#0000CC;" vertex="1" parent="50dgmGFw_itX3a2I8BG3-7">
          <mxGeometry x="83" y="70" width="75" height="69" as="geometry" />
        </mxCell>
        <mxCell id="50dgmGFw_itX3a2I8BG3-12" value="Amazon EC2" style="sketch=0;outlineConnect=0;fontColor=#232F3E;gradientColor=none;strokeColor=#ffffff;fillColor=#232F3E;dashed=0;verticalLabelPosition=middle;verticalAlign=bottom;align=center;html=1;whiteSpace=wrap;fontSize=10;fontStyle=1;spacing=3;shape=mxgraph.aws4.productIcon;prIcon=mxgraph.aws4.ec2;" vertex="1" parent="50dgmGFw_itX3a2I8BG3-7">
          <mxGeometry x="83" y="170" width="80" height="100" as="geometry" />
        </mxCell>
        <mxCell id="50dgmGFw_itX3a2I8BG3-6" value="Private subnet" style="points=[[0,0],[0.25,0],[0.5,0],[0.75,0],[1,0],[1,0.25],[1,0.5],[1,0.75],[1,1],[0.75,1],[0.5,1],[0.25,1],[0,1],[0,0.75],[0,0.5],[0,0.25]];outlineConnect=0;gradientColor=none;html=1;whiteSpace=wrap;fontSize=12;fontStyle=0;container=1;pointerEvents=0;collapsible=0;recursiveResize=0;shape=mxgraph.aws4.group;grIcon=mxgraph.aws4.group_security_group;grStroke=0;strokeColor=#147EBA;fillColor=#E6F2F8;verticalAlign=top;align=left;spacingLeft=30;fontColor=#147EBA;dashed=0;" vertex="1" parent="1">
          <mxGeometry x="730" y="170" width="280" height="410" as="geometry" />
        </mxCell>
        <mxCell id="50dgmGFw_itX3a2I8BG3-8" value="&lt;font color=&quot;#0000cc&quot;&gt;Security Group&lt;/font&gt;&lt;br&gt;&lt;br&gt;&lt;b style=&quot;&quot;&gt;&lt;font color=&quot;#452200&quot; style=&quot;font-size: 15px;&quot;&gt;Database&lt;/font&gt;&lt;/b&gt;" style="fontStyle=0;verticalAlign=top;align=center;spacingTop=-2;fillColor=none;rounded=0;whiteSpace=wrap;html=1;strokeColor=#FF0000;strokeWidth=2;dashed=1;container=1;collapsible=0;expand=0;recursiveResize=0;" vertex="1" parent="50dgmGFw_itX3a2I8BG3-6">
          <mxGeometry x="20" y="50" width="240" height="340" as="geometry" />
        </mxCell>
        <mxCell id="50dgmGFw_itX3a2I8BG3-18" value="" style="outlineConnect=0;dashed=0;verticalLabelPosition=bottom;verticalAlign=top;align=center;html=1;shape=mxgraph.aws3.route_table;fillColor=#F58536;gradientColor=none;strokeColor=#FFFFCC;strokeWidth=4;fontColor=#0000CC;" vertex="1" parent="50dgmGFw_itX3a2I8BG3-8">
          <mxGeometry x="83" y="70" width="75" height="69" as="geometry" />
        </mxCell>
        <mxCell id="50dgmGFw_itX3a2I8BG3-19" value="Amazon EC2" style="sketch=0;outlineConnect=0;fontColor=#232F3E;gradientColor=none;strokeColor=#ffffff;fillColor=#232F3E;dashed=0;verticalLabelPosition=middle;verticalAlign=bottom;align=center;html=1;whiteSpace=wrap;fontSize=10;fontStyle=1;spacing=3;shape=mxgraph.aws4.productIcon;prIcon=mxgraph.aws4.ec2;" vertex="1" parent="50dgmGFw_itX3a2I8BG3-8">
          <mxGeometry x="83" y="170" width="80" height="100" as="geometry" />
        </mxCell>
        <mxCell id="50dgmGFw_itX3a2I8BG3-16" style="edgeStyle=orthogonalEdgeStyle;rounded=0;orthogonalLoop=1;jettySize=auto;html=1;fontColor=#0000CC;strokeColor=#00FF00;jumpSize=6;strokeWidth=5;" edge="1" parent="1" source="50dgmGFw_itX3a2I8BG3-13" target="50dgmGFw_itX3a2I8BG3-7">
          <mxGeometry relative="1" as="geometry">
            <Array as="points">
              <mxPoint x="576" y="246" />
              <mxPoint x="576" y="330" />
            </Array>
          </mxGeometry>
        </mxCell>
        <mxCell id="50dgmGFw_itX3a2I8BG3-13" value="" style="outlineConnect=0;dashed=0;verticalLabelPosition=bottom;verticalAlign=top;align=center;html=1;shape=mxgraph.aws3.router;fillColor=#F58534;gradientColor=none;strokeWidth=4;fontColor=#0000CC;" vertex="1" parent="1">
          <mxGeometry x="601" y="210" width="69" height="72" as="geometry" />
        </mxCell>
        <mxCell id="50dgmGFw_itX3a2I8BG3-15" style="edgeStyle=orthogonalEdgeStyle;rounded=0;orthogonalLoop=1;jettySize=auto;html=1;fontColor=#0000CC;strokeColor=#00FF00;strokeWidth=5;" edge="1" parent="1" source="50dgmGFw_itX3a2I8BG3-10" target="50dgmGFw_itX3a2I8BG3-13">
          <mxGeometry relative="1" as="geometry" />
        </mxCell>
        <mxCell id="50dgmGFw_itX3a2I8BG3-20" style="edgeStyle=orthogonalEdgeStyle;rounded=0;orthogonalLoop=1;jettySize=auto;html=1;strokeColor=#00FF00;fontColor=#0000CC;strokeWidth=5;" edge="1" parent="1" source="50dgmGFw_itX3a2I8BG3-19" target="50dgmGFw_itX3a2I8BG3-12">
          <mxGeometry relative="1" as="geometry" />
        </mxCell>
      </root>
    </mxGraphModel>
  </diagram>
</mxfile>
